<?xml version="1.0" encoding="utf-8"?>
<!-- Generator: Adobe Illustrator 23.0.1, SVG Export Plug-In . SVG Version: 6.00 Build 0)  -->
<svg version="1.1" id="Layer_1" xmlns="http://www.w3.org/2000/svg" xmlns:xlink="http://www.w3.org/1999/xlink" x="0px" y="0px"
	 viewBox="0 0 816 634.1" style="enable-background:new 0 0 816 634.1;" xml:space="preserve">
<style type="text/css">
	.st0{fill:#FFFFFF;stroke:#000000;stroke-miterlimit:10;}
	.st1{fill:#E2D5E8;}
	.st2{fill:none;stroke:#000000;stroke-miterlimit:10;}
	.st3{font-family:'ArialMT';}
	.st4{font-size:15px;}
	.st5{fill:none;stroke:#000000;stroke-width:0.25;stroke-miterlimit:10;}
	.st6{fill:#E2D5E8;stroke:#000000;stroke-miterlimit:10;}
	.st7{font-size:13px;}
	.st8{fill:none;stroke:#000000;stroke-width:0.5;stroke-miterlimit:10;}
	.st9{fill:#D5E8D3;}
	.st10{fill:#D4E0F4;}
	.st11{fill:none;stroke:#000000;stroke-linecap:round;stroke-linejoin:round;}
	.st12{fill:none;stroke:#000000;stroke-linecap:round;stroke-linejoin:round;stroke-dasharray:3.77,3.77;}
	.st13{fill:none;stroke:#000000;stroke-linecap:round;stroke-linejoin:round;stroke-dasharray:4.13,4.13;}
	.st14{fill:none;stroke:#000000;stroke-linecap:round;stroke-linejoin:round;stroke-dasharray:3.78,3.78;}
	.st15{fill:none;stroke:#000000;stroke-linecap:round;stroke-linejoin:round;stroke-dasharray:4;}
	.st16{font-size:13.3098px;}
</style>
<rect class="st0" width="816" height="634.1"/>
<g>
	<title>erdIOTA</title>
	<path class="st1" d="M240.9,225c0,5.5-4.5,10-10,10H86.2c-5.5,0-10-4.5-10-10V32.9c0-5.5,4.5-10,10-10h144.7c5.5,0,10,4.5,10,10
		V225z"/>
	<path class="st2" d="M240.9,225c0,5.5-4.5,10-10,10H86.2c-5.5,0-10-4.5-10-10V32.9c0-5.5,4.5-10,10-10h144.7c5.5,0,10,4.5,10,10
		V225z"/>
	<text transform="matrix(1 0 0 1 132.5314 38.5146)" class="st3 st4">A</text>
	<text transform="matrix(1 0 0 1 132.5314 38.5146)" class="st5 st3 st4">A</text>
	<text transform="matrix(1 0 0 1 141.5314 38.5146)" class="st3 st4">cc</text>
	<text transform="matrix(1 0 0 1 141.5314 38.5146)" class="st5 st3 st4">cc</text>
	<text transform="matrix(1 0 0 1 154.7914 38.5146)" class="st3 st4">ou</text>
	<text transform="matrix(1 0 0 1 154.7914 38.5146)" class="st5 st3 st4">ou</text>
	<text transform="matrix(1 0 0 1 171.2914 38.5146)" class="st3 st4">n</text>
	<text transform="matrix(1 0 0 1 171.2914 38.5146)" class="st5 st3 st4">n</text>
	<text transform="matrix(1 0 0 1 179.5514 38.5146)" class="st3 st4">t</text>
	<text transform="matrix(1 0 0 1 179.5514 38.5146)" class="st5 st3 st4">t</text>
	<path class="st6" d="M75.9,43h164.7"/>
	<text transform="matrix(1 0 0 1 86.7014 63.4345)" class="st3 st7">A</text>
	<text transform="matrix(1 0 0 1 86.7014 63.4345)" class="st8 st3 st7">A</text>
	<text transform="matrix(1 0 0 1 94.5014 63.4345)" class="st3 st7">cc</text>
	<text transform="matrix(1 0 0 1 94.5014 63.4345)" class="st8 st3 st7">cc</text>
	<text transform="matrix(1 0 0 1 105.9915 63.4345)" class="st3 st7">ou</text>
	<text transform="matrix(1 0 0 1 105.9915 63.4345)" class="st8 st3 st7">ou</text>
	<text transform="matrix(1 0 0 1 120.2914 63.4345)" class="st3 st7">n</text>
	<text transform="matrix(1 0 0 1 120.2914 63.4345)" class="st8 st3 st7">n</text>
	<text transform="matrix(1 0 0 1 127.4514 63.4345)" class="st3 st7">tID: </text>
	<text transform="matrix(1 0 0 1 127.4514 63.4345)" class="st8 st3 st7">tID: </text>
	<text transform="matrix(1 0 0 1 148.9714 63.4345)" class="st3 st7">v</text>
	<text transform="matrix(1 0 0 1 148.9714 63.4345)" class="st8 st3 st7">v</text>
	<text transform="matrix(1 0 0 1 155.1714 63.4345)" class="st3 st7">a</text>
	<text transform="matrix(1 0 0 1 155.1714 63.4345)" class="st8 st3 st7">a</text>
	<text transform="matrix(1 0 0 1 161.4414 63.4345)" class="st3 st7">r</text>
	<text transform="matrix(1 0 0 1 161.4414 63.4345)" class="st8 st3 st7">r</text>
	<text transform="matrix(1 0 0 1 165.5614 63.4345)" class="st3 st7">char(255)</text>
	<text transform="matrix(1 0 0 1 165.5614 63.4345)" class="st8 st3 st7">char(255)</text>
	<text transform="matrix(1 0 0 1 86.7014 79.0346)" class="st3 st7">P</text>
	<text transform="matrix(1 0 0 1 93.4114 79.0346)" class="st3 st7">r</text>
	<text transform="matrix(1 0 0 1 97.5314 79.0346)" class="st3 st7">o</text>
	<text transform="matrix(1 0 0 1 104.5814 79.0346)" class="st3 st7">vide</text>
	<text transform="matrix(1 0 0 1 127.7114 79.0346)" class="st3 st7">r</text>
	<text transform="matrix(1 0 0 1 132.0814 79.0346)" class="st3 st7">: </text>
	<text transform="matrix(1 0 0 1 137.5314 79.0346)" class="st3 st7">v</text>
	<text transform="matrix(1 0 0 1 143.7314 79.0346)" class="st3 st7">a</text>
	<text transform="matrix(1 0 0 1 150.0014 79.0346)" class="st3 st7">r</text>
	<text transform="matrix(1 0 0 1 154.1215 79.0346)" class="st3 st7">char(255)</text>
	<text transform="matrix(1 0 0 1 86.7014 94.6345)" class="st3 st7">I</text>
	<text transform="matrix(1 0 0 1 89.9414 94.6345)" class="st3 st7">nd</text>
	<text transform="matrix(1 0 0 1 104.4814 94.6345)" class="st3 st7">e</text>
	<text transform="matrix(1 0 0 1 110.9614 94.6345)" class="st3 st7">x: i</text>
	<text transform="matrix(1 0 0 1 125.4714 94.6345)" class="st3 st7">n</text>
	<text transform="matrix(1 0 0 1 132.6314 94.6345)" class="st3 st7">t</text>
	<text transform="matrix(1 0 0 1 86.7014 110.2346)" class="st3 st7">A</text>
	<text transform="matrix(1 0 0 1 94.6215 110.2346)" class="st3 st7">lias: </text>
	<text transform="matrix(1 0 0 1 117.5914 110.2346)" class="st3 st7">v</text>
	<text transform="matrix(1 0 0 1 123.7914 110.2346)" class="st3 st7">a</text>
	<text transform="matrix(1 0 0 1 130.0514 110.2346)" class="st3 st7">r</text>
	<text transform="matrix(1 0 0 1 134.1814 110.2346)" class="st3 st7">char(255)</text>
	<text transform="matrix(1 0 0 1 86.7014 125.8345)" class="st3 st7">P</text>
	<text transform="matrix(1 0 0 1 93.2914 125.8345)" class="st3 st7">o</text>
	<text transform="matrix(1 0 0 1 100.3414 125.8345)" class="st3 st7">w</text>
	<text transform="matrix(1 0 0 1 110.2214 125.8345)" class="st3 st7">: </text>
	<text transform="matrix(1 0 0 1 115.6614 125.8345)" class="st3 st7">v</text>
	<text transform="matrix(1 0 0 1 121.8615 125.8345)" class="st3 st7">a</text>
	<text transform="matrix(1 0 0 1 128.1314 125.8345)" class="st3 st7">r</text>
	<text transform="matrix(1 0 0 1 132.2514 125.8345)" class="st3 st7">char(255)</text>
	<text transform="matrix(1 0 0 1 86.7014 141.4346)" class="st3 st7">Q</text>
	<text transform="matrix(1 0 0 1 95.7014 141.4346)" class="st3 st7">uorumSi</text>
	<text transform="matrix(1 0 0 1 141.7014 141.4346)" class="st3 st7">z</text>
	<text transform="matrix(1 0 0 1 147.1814 141.4346)" class="st3 st7">e: i</text>
	<text transform="matrix(1 0 0 1 162.1814 141.4346)" class="st3 st7">n</text>
	<text transform="matrix(1 0 0 1 169.3414 141.4346)" class="st3 st7">t</text>
	<text transform="matrix(1 0 0 1 86.7014 157.0346)" class="st3 st7">Q</text>
	<text transform="matrix(1 0 0 1 95.7014 157.0346)" class="st3 st7">ue</text>
	<text transform="matrix(1 0 0 1 109.3715 157.0346)" class="st3 st7">r</text>
	<text transform="matrix(1 0 0 1 113.4915 157.0346)" class="st3 st7">o</text>
	<text transform="matrix(1 0 0 1 120.6314 157.0346)" class="st3 st7">m</text>
	<text transform="matrix(1 0 0 1 130.8214 157.0346)" class="st3 st7">T</text>
	<text transform="matrix(1 0 0 1 137.1914 157.0346)" class="st3 st7">h</text>
	<text transform="matrix(1 0 0 1 144.4114 157.0346)" class="st3 st7">r</text>
	<text transform="matrix(1 0 0 1 148.5314 157.0346)" class="st3 st7">eshold: i</text>
	<text transform="matrix(1 0 0 1 193.4314 157.0346)" class="st3 st7">n</text>
	<text transform="matrix(1 0 0 1 200.5914 157.0346)" class="st3 st7">t</text>
	<text transform="matrix(1 0 0 1 86.7014 172.6345)" class="st3 st7">Ne</text>
	<text transform="matrix(1 0 0 1 101.7714 172.6345)" class="st3 st7">t</text>
	<text transform="matrix(1 0 0 1 106.1914 172.6345)" class="st3 st7">w</text>
	<text transform="matrix(1 0 0 1 115.6215 172.6345)" class="st3 st7">o</text>
	<text transform="matrix(1 0 0 1 122.7614 172.6345)" class="st3 st7">r</text>
	<text transform="matrix(1 0 0 1 127.0614 172.6345)" class="st3 st7">k</text>
	<text transform="matrix(1 0 0 1 133.2914 172.6345)" class="st3 st7">: </text>
	<text transform="matrix(1 0 0 1 138.7415 172.6345)" class="st3 st7">v</text>
	<text transform="matrix(1 0 0 1 144.9414 172.6345)" class="st3 st7">a</text>
	<text transform="matrix(1 0 0 1 151.2014 172.6345)" class="st3 st7">r</text>
	<text transform="matrix(1 0 0 1 155.3314 172.6345)" class="st3 st7">char(255)</text>
	<text transform="matrix(1 0 0 1 86.7014 188.2346)" class="st3 st7">T</text>
	<text transform="matrix(1 0 0 1 92.6414 188.2346)" class="st3 st7">ype: </text>
	<text transform="matrix(1 0 0 1 118.1215 188.2346)" class="st3 st7">v</text>
	<text transform="matrix(1 0 0 1 124.3214 188.2346)" class="st3 st7">a</text>
	<text transform="matrix(1 0 0 1 130.5914 188.2346)" class="st3 st7">r</text>
	<text transform="matrix(1 0 0 1 134.7114 188.2346)" class="st3 st7">char(255)</text>
	<text transform="matrix(1 0 0 1 86.7014 203.8345)" class="st3 st7">C</text>
	<text transform="matrix(1 0 0 1 94.2014 203.8345)" class="st3 st7">r</text>
	<text transform="matrix(1 0 0 1 98.3214 203.8345)" class="st3 st7">e</text>
	<text transform="matrix(1 0 0 1 104.8314 203.8345)" class="st3 st7">a</text>
	<text transform="matrix(1 0 0 1 111.0515 203.8345)" class="st3 st7">t</text>
	<text transform="matrix(1 0 0 1 115.2714 203.8345)" class="st3 st7">ed</text>
	<text transform="matrix(1 0 0 1 129.1215 203.8345)" class="st3 st7">A</text>
	<text transform="matrix(1 0 0 1 136.9414 203.8345)" class="st3 st7">t: D</text>
	<text transform="matrix(1 0 0 1 155.3514 203.8345)" class="st3 st7">a</text>
	<text transform="matrix(1 0 0 1 161.5714 203.8345)" class="st3 st7">t</text>
	<text transform="matrix(1 0 0 1 165.7914 203.8345)" class="st3 st7">e</text>
	<text transform="matrix(1 0 0 1 86.7014 219.4346)" class="st3 st7">Upd</text>
	<text transform="matrix(1 0 0 1 109.8414 219.4346)" class="st3 st7">a</text>
	<text transform="matrix(1 0 0 1 116.0515 219.4346)" class="st3 st7">t</text>
	<text transform="matrix(1 0 0 1 120.2814 219.4346)" class="st3 st7">ed</text>
	<text transform="matrix(1 0 0 1 134.1215 219.4346)" class="st3 st7">A</text>
	<text transform="matrix(1 0 0 1 141.9514 219.4346)" class="st3 st7">t: D</text>
	<text transform="matrix(1 0 0 1 160.3615 219.4346)" class="st3 st7">a</text>
	<text transform="matrix(1 0 0 1 166.5714 219.4346)" class="st3 st7">t</text>
	<text transform="matrix(1 0 0 1 170.8014 219.4346)" class="st3 st7">e</text>
	<path class="st9" d="M667,106.6c0,5.5-4.5,10-10,10H512.3c-5.5,0-10-4.5-10-10V47.9c0-2.1,4.5-3.8,10-3.8H657c5.5,0,10,4.5,10,10
		V106.6z"/>
	<path class="st2" d="M667,106.6c0,5.5-4.5,10-10,10H512.3c-5.5,0-10-4.5-10-10V47.9c0-2.1,4.5-3.8,10-3.8H657c5.5,0,10,4.5,10,10
		V106.6z"/>
	<text transform="matrix(1 0 0 1 515.8214 59.7346)" class="st3 st4">A</text>
	<text transform="matrix(1 0 0 1 515.8214 59.7346)" class="st5 st3 st4">A</text>
	<text transform="matrix(1 0 0 1 524.8214 59.7346)" class="st3 st4">cc</text>
	<text transform="matrix(1 0 0 1 524.8214 59.7346)" class="st5 st3 st4">cc</text>
	<text transform="matrix(1 0 0 1 538.0814 59.7346)" class="st3 st4">ou</text>
	<text transform="matrix(1 0 0 1 538.0814 59.7346)" class="st5 st3 st4">ou</text>
	<text transform="matrix(1 0 0 1 554.5814 59.7346)" class="st3 st4">n</text>
	<text transform="matrix(1 0 0 1 554.5814 59.7346)" class="st5 st3 st4">n</text>
	<text transform="matrix(1 0 0 1 562.8414 59.7346)" class="st3 st4">t_</text>
	<text transform="matrix(1 0 0 1 562.8414 59.7346)" class="st5 st3 st4">t_</text>
	<text transform="matrix(1 0 0 1 575.3114 59.7346)" class="st3 st4">T</text>
	<text transform="matrix(1 0 0 1 575.3114 59.7346)" class="st5 st3 st4">T</text>
	<text transform="matrix(1 0 0 1 582.0914 59.7346)" class="st3 st4">r</text>
	<text transform="matrix(1 0 0 1 582.0914 59.7346)" class="st5 st3 st4">r</text>
	<text transform="matrix(1 0 0 1 586.9214 59.7346)" class="st3 st4">ansa</text>
	<text transform="matrix(1 0 0 1 586.9214 59.7346)" class="st5 st3 st4">ansa</text>
	<text transform="matrix(1 0 0 1 615.6414 59.7346)" class="st3 st4">c</text>
	<text transform="matrix(1 0 0 1 615.6414 59.7346)" class="st5 st3 st4">c</text>
	<text transform="matrix(1 0 0 1 622.5614 59.7346)" class="st3 st4">tions</text>
	<text transform="matrix(1 0 0 1 622.5614 59.7346)" class="st5 st3 st4">tions</text>
	<path class="st6" d="M503.1,64.2h164.7"/>
	<path class="st9" d="M527.8,253.9c0,5.5-4.5,10-10,10H373c-5.5,0-10-4.5-10-10v-57c0-2.1,4.5-3.7,10-3.7h144.8c5.5,0,10,4.5,10,10
		V253.9z"/>
	<path class="st2" d="M527.8,253.9c0,5.5-4.5,10-10,10H373c-5.5,0-10-4.5-10-10v-57c0-2.1,4.5-3.7,10-3.7h144.8c5.5,0,10,4.5,10,10
		V253.9z"/>
	<text transform="matrix(1 0 0 1 395.6514 208.8446)" class="st3 st4">A</text>
	<text transform="matrix(1 0 0 1 395.6514 208.8446)" class="st5 st3 st4">A</text>
	<text transform="matrix(1 0 0 1 404.6514 208.8446)" class="st3 st4">cc</text>
	<text transform="matrix(1 0 0 1 404.6514 208.8446)" class="st5 st3 st4">cc</text>
	<text transform="matrix(1 0 0 1 417.9114 208.8446)" class="st3 st4">ou</text>
	<text transform="matrix(1 0 0 1 417.9114 208.8446)" class="st5 st3 st4">ou</text>
	<text transform="matrix(1 0 0 1 434.4114 208.8446)" class="st3 st4">n</text>
	<text transform="matrix(1 0 0 1 434.4114 208.8446)" class="st5 st3 st4">n</text>
	<text transform="matrix(1 0 0 1 442.6714 208.8446)" class="st3 st4">t_Nodes</text>
	<text transform="matrix(1 0 0 1 442.6714 208.8446)" class="st5 st3 st4">t_Nodes</text>
	<path class="st6" d="M362.4,213.3h164.7"/>
	<path class="st10" d="M193.7,481.5c0,5.5-4.5,10-10,10H39c-5.5,0-10-4.5-10-10V381.3c0-3.4,4.5-6.1,10-6.1h144.7
		c5.5,0,10,4.5,10,10V481.5z"/>
	<path class="st2" d="M193.7,481.5c0,5.5-4.5,10-10,10H39c-5.5,0-10-4.5-10-10V381.3c0-3.4,4.5-6.1,10-6.1h144.7c5.5,0,10,4.5,10,10
		V481.5z"/>
	<text transform="matrix(1 0 0 1 86.3015 390.7946)" class="st3 st4">A</text>
	<text transform="matrix(1 0 0 1 86.3015 390.7946)" class="st5 st3 st4">A</text>
	<text transform="matrix(1 0 0 1 95.3014 390.7946)" class="st3 st4">dd</text>
	<text transform="matrix(1 0 0 1 95.3014 390.7946)" class="st5 st3 st4">dd</text>
	<text transform="matrix(1 0 0 1 112.2214 390.7946)" class="st3 st4">r</text>
	<text transform="matrix(1 0 0 1 112.2214 390.7946)" class="st5 st3 st4">r</text>
	<text transform="matrix(1 0 0 1 116.9714 390.7946)" class="st3 st4">ess</text>
	<text transform="matrix(1 0 0 1 116.9714 390.7946)" class="st5 st3 st4">ess</text>
	<path class="st6" d="M29.2,395.2H194"/>
	<text transform="matrix(1 0 0 1 38.9814 416.7246)" class="st3 st7">A</text>
	<text transform="matrix(1 0 0 1 38.9814 416.7246)" class="st8 st3 st7">A</text>
	<text transform="matrix(1 0 0 1 46.7814 416.7246)" class="st3 st7">dd</text>
	<text transform="matrix(1 0 0 1 46.7814 416.7246)" class="st8 st3 st7">dd</text>
	<text transform="matrix(1 0 0 1 61.4414 416.7246)" class="st3 st7">r</text>
	<text transform="matrix(1 0 0 1 61.4414 416.7246)" class="st8 st3 st7">r</text>
	<text transform="matrix(1 0 0 1 65.5614 416.7246)" class="st3 st7">ess: </text>
	<text transform="matrix(1 0 0 1 65.5614 416.7246)" class="st8 st3 st7">ess: </text>
	<text transform="matrix(1 0 0 1 87.8214 416.7246)" class="st3 st7">v</text>
	<text transform="matrix(1 0 0 1 87.8214 416.7246)" class="st8 st3 st7">v</text>
	<text transform="matrix(1 0 0 1 94.0214 416.7246)" class="st3 st7">a</text>
	<text transform="matrix(1 0 0 1 94.0214 416.7246)" class="st8 st3 st7">a</text>
	<text transform="matrix(1 0 0 1 100.2914 416.7246)" class="st3 st7">r</text>
	<text transform="matrix(1 0 0 1 100.2914 416.7246)" class="st8 st3 st7">r</text>
	<text transform="matrix(1 0 0 1 104.4114 416.7246)" class="st3 st7">char(255)</text>
	<text transform="matrix(1 0 0 1 104.4114 416.7246)" class="st8 st3 st7">char(255)</text>
	<text transform="matrix(1 0 0 1 38.9814 447.9246)" class="st3 st7">I</text>
	<text transform="matrix(1 0 0 1 42.2214 447.9246)" class="st3 st7">nd</text>
	<text transform="matrix(1 0 0 1 56.7614 447.9246)" class="st3 st7">e</text>
	<text transform="matrix(1 0 0 1 63.2415 447.9246)" class="st3 st7">x: i</text>
	<text transform="matrix(1 0 0 1 77.7514 447.9246)" class="st3 st7">n</text>
	<text transform="matrix(1 0 0 1 84.9114 447.9246)" class="st3 st7">t</text>
	<text transform="matrix(1 0 0 1 38.9814 463.5246)" class="st3 st7">Checksum: </text>
	<text transform="matrix(1 0 0 1 100.7714 463.5246)" class="st3 st7">v</text>
	<text transform="matrix(1 0 0 1 106.9714 463.5246)" class="st3 st7">a</text>
	<text transform="matrix(1 0 0 1 113.2314 463.5246)" class="st3 st7">r</text>
	<text transform="matrix(1 0 0 1 117.3615 463.5246)" class="st3 st7">char(255)</text>
	<text transform="matrix(1 0 0 1 38.9814 479.1246)" class="st3 st7">Balan</text>
	<text transform="matrix(1 0 0 1 68.8414 479.1246)" class="st3 st7">c</text>
	<text transform="matrix(1 0 0 1 74.5914 479.1246)" class="st3 st7">e: i</text>
	<text transform="matrix(1 0 0 1 89.5914 479.1246)" class="st3 st7">n</text>
	<text transform="matrix(1 0 0 1 96.7514 479.1246)" class="st3 st7">t</text>
	<path class="st9" d="M409.5,497.8c0,5.5-4.5,10-10,10H254.7c-5.5,0-10-4.5-10-10V383.1c0-3.8,4.5-6.9,10-6.9h144.7
		c5.5,0,10,4.5,10,10V497.8z"/>
	<path class="st2" d="M409.5,497.8c0,5.5-4.5,10-10,10H254.7c-5.5,0-10-4.5-10-10V383.1c0-3.8,4.5-6.9,10-6.9h144.7
		c5.5,0,10,4.5,10,10V497.8z"/>
	<text transform="matrix(1 0 0 1 312.3214 391.7946)" class="st3 st7">Node</text>
	<text transform="matrix(1 0 0 1 312.3214 391.7946)" class="st5 st3 st7">Node</text>
	<path class="st6" d="M244.6,396.2h164.7"/>
	<text transform="matrix(1 0 0 1 254.3814 416.7246)" class="st3 st7">NodeId: </text>
	<text transform="matrix(1 0 0 1 254.3814 416.7246)" class="st8 st3 st7">NodeId: </text>
	<text transform="matrix(1 0 0 1 299.8014 416.7246)" class="st3 st7">v</text>
	<text transform="matrix(1 0 0 1 299.8014 416.7246)" class="st8 st3 st7">v</text>
	<text transform="matrix(1 0 0 1 306.0015 416.7246)" class="st3 st7">a</text>
	<text transform="matrix(1 0 0 1 306.0015 416.7246)" class="st8 st3 st7">a</text>
	<text transform="matrix(1 0 0 1 312.2714 416.7246)" class="st3 st7">r</text>
	<text transform="matrix(1 0 0 1 312.2714 416.7246)" class="st8 st3 st7">r</text>
	<text transform="matrix(1 0 0 1 316.3914 416.7246)" class="st3 st7">char(255)</text>
	<text transform="matrix(1 0 0 1 316.3914 416.7246)" class="st8 st3 st7">char(255)</text>
	<text transform="matrix(1 0 0 1 254.3814 432.3246)" class="st3 st7">U</text>
	<text transform="matrix(1 0 0 1 262.7914 432.3246)" class="st3 st7">r</text>
	<text transform="matrix(1 0 0 1 267.0914 432.3246)" class="st3 st7">l: </text>
	<text transform="matrix(1 0 0 1 275.6115 432.3246)" class="st3 st7">v</text>
	<text transform="matrix(1 0 0 1 281.8114 432.3246)" class="st3 st7">a</text>
	<text transform="matrix(1 0 0 1 288.0814 432.3246)" class="st3 st7">r</text>
	<text transform="matrix(1 0 0 1 292.2014 432.3246)" class="st3 st7">char(255)</text>
	<text transform="matrix(1 0 0 1 254.3814 447.9246)" class="st3 st7">P</text>
	<text transform="matrix(1 0 0 1 260.9714 447.9246)" class="st3 st7">o</text>
	<text transform="matrix(1 0 0 1 268.0214 447.9246)" class="st3 st7">w</text>
	<text transform="matrix(1 0 0 1 277.9014 447.9246)" class="st3 st7">: </text>
	<text transform="matrix(1 0 0 1 283.3414 447.9246)" class="st3 st7">v</text>
	<text transform="matrix(1 0 0 1 289.5414 447.9246)" class="st3 st7">a</text>
	<text transform="matrix(1 0 0 1 295.8114 447.9246)" class="st3 st7">r</text>
	<text transform="matrix(1 0 0 1 299.9314 447.9246)" class="st3 st7">char(255)</text>
	<text transform="matrix(1 0 0 1 254.3814 463.5246)" class="st3 st7">U</text>
	<text transform="matrix(1 0 0 1 262.7114 463.5246)" class="st3 st7">se</text>
	<text transform="matrix(1 0 0 1 274.3715 463.5246)" class="st3 st7">r</text>
	<text transform="matrix(1 0 0 1 278.6814 463.5246)" class="st3 st7">name: </text>
	<text transform="matrix(1 0 0 1 314.9614 463.5246)" class="st3 st7">v</text>
	<text transform="matrix(1 0 0 1 321.1614 463.5246)" class="st3 st7">a</text>
	<text transform="matrix(1 0 0 1 327.4314 463.5246)" class="st3 st7">r</text>
	<text transform="matrix(1 0 0 1 331.5514 463.5246)" class="st3 st7">char(255)</text>
	<text transform="matrix(1 0 0 1 254.3814 479.1246)" class="st3 st7">P</text>
	<text transform="matrix(1 0 0 1 260.9614 479.1246)" class="st3 st7">ass</text>
	<text transform="matrix(1 0 0 1 277.5214 479.1246)" class="st3 st7">w</text>
	<text transform="matrix(1 0 0 1 286.9614 479.1246)" class="st3 st7">o</text>
	<text transform="matrix(1 0 0 1 294.0914 479.1246)" class="st3 st7">r</text>
	<text transform="matrix(1 0 0 1 298.2214 479.1246)" class="st3 st7">d: : </text>
	<text transform="matrix(1 0 0 1 316.4414 479.1246)" class="st3 st7">v</text>
	<text transform="matrix(1 0 0 1 322.6414 479.1246)" class="st3 st7">a</text>
	<text transform="matrix(1 0 0 1 328.9114 479.1246)" class="st3 st7">r</text>
	<text transform="matrix(1 0 0 1 333.0314 479.1246)" class="st3 st7">char(255)</text>
	<text transform="matrix(1 0 0 1 254.3814 494.7246)" class="st3 st7">Ne</text>
	<text transform="matrix(1 0 0 1 269.4514 494.7246)" class="st3 st7">t</text>
	<text transform="matrix(1 0 0 1 273.8715 494.7246)" class="st3 st7">w</text>
	<text transform="matrix(1 0 0 1 283.3014 494.7246)" class="st3 st7">o</text>
	<text transform="matrix(1 0 0 1 290.4414 494.7246)" class="st3 st7">r</text>
	<text transform="matrix(1 0 0 1 294.7415 494.7246)" class="st3 st7">k</text>
	<text transform="matrix(1 0 0 1 300.9714 494.7246)" class="st3 st7">: : </text>
	<text transform="matrix(1 0 0 1 311.8615 494.7246)" class="st3 st7">v</text>
	<text transform="matrix(1 0 0 1 318.0714 494.7246)" class="st3 st7">a</text>
	<text transform="matrix(1 0 0 1 324.3314 494.7246)" class="st3 st7">r</text>
	<text transform="matrix(1 0 0 1 328.4514 494.7246)" class="st3 st7">char(255)</text>
	<path class="st9" d="M785.8,600.7c0,5.5-4.5,10-10,10H557.5c-5.5,0-10-4.5-10-10V362.5c0-5.5,4.5-10,10-10h218.3
		c5.5,0,10,4.5,10,10V600.7z"/>
	<path class="st2" d="M785.8,600.7c0,5.5-4.5,10-10,10H557.5c-5.5,0-10-4.5-10-10V362.5c0-5.5,4.5-10,10-10h218.3
		c5.5,0,10,4.5,10,10V600.7z"/>
	<text transform="matrix(1 0 0 1 630.5015 368.1346)" class="st3 st4">T</text>
	<text transform="matrix(1 0 0 1 630.5015 368.1346)" class="st5 st3 st4">T</text>
	<text transform="matrix(1 0 0 1 637.2815 368.1346)" class="st3 st4">r</text>
	<text transform="matrix(1 0 0 1 637.2815 368.1346)" class="st5 st3 st4">r</text>
	<text transform="matrix(1 0 0 1 642.1113 368.1346)" class="st3 st4">ansa</text>
	<text transform="matrix(1 0 0 1 642.1113 368.1346)" class="st5 st3 st4">ansa</text>
	<text transform="matrix(1 0 0 1 670.8314 368.1346)" class="st3 st4">c</text>
	<text transform="matrix(1 0 0 1 670.8314 368.1346)" class="st5 st3 st4">c</text>
	<text transform="matrix(1 0 0 1 677.7515 368.1346)" class="st3 st4">tion</text>
	<text transform="matrix(1 0 0 1 677.7515 368.1346)" class="st5 st3 st4">tion</text>
	<path class="st6" d="M548.1,376.1h238.1"/>
	<text transform="matrix(1 0 0 1 557.8615 394.0545)" class="st3 st7">Hash: </text>
	<text transform="matrix(1 0 0 1 557.8615 394.0545)" class="st8 st3 st7">Hash: </text>
	<text transform="matrix(1 0 0 1 590.4114 394.0545)" class="st3 st7">v</text>
	<text transform="matrix(1 0 0 1 590.4114 394.0545)" class="st8 st3 st7">v</text>
	<text transform="matrix(1 0 0 1 596.6115 394.0545)" class="st3 st7">a</text>
	<text transform="matrix(1 0 0 1 596.6115 394.0545)" class="st8 st3 st7">a</text>
	<text transform="matrix(1 0 0 1 602.8815 394.0545)" class="st3 st7">r</text>
	<text transform="matrix(1 0 0 1 602.8815 394.0545)" class="st8 st3 st7">r</text>
	<text transform="matrix(1 0 0 1 607.0015 394.0545)" class="st3 st7">char(255)</text>
	<text transform="matrix(1 0 0 1 607.0015 394.0545)" class="st8 st3 st7">char(255)</text>
	<text transform="matrix(1 0 0 1 557.8615 409.6546)" class="st3 st7">Si</text>
	<text transform="matrix(1 0 0 1 567.3115 409.6546)" class="st3 st7">g</text>
	<text transform="matrix(1 0 0 1 574.5015 409.6546)" class="st3 st7">n</text>
	<text transform="matrix(1 0 0 1 581.7114 409.6546)" class="st3 st7">a</text>
	<text transform="matrix(1 0 0 1 587.9314 409.6546)" class="st3 st7">tu</text>
	<text transform="matrix(1 0 0 1 599.3915 409.6546)" class="st3 st7">r</text>
	<text transform="matrix(1 0 0 1 603.5215 409.6546)" class="st3 st7">e</text>
	<text transform="matrix(1 0 0 1 610.0315 409.6546)" class="st3 st7">M</text>
	<text transform="matrix(1 0 0 1 620.5615 409.6546)" class="st3 st7">essage</text>
	<text transform="matrix(1 0 0 1 657.4114 409.6546)" class="st3 st7">F</text>
	<text transform="matrix(1 0 0 1 663.4114 409.6546)" class="st3 st7">r</text>
	<text transform="matrix(1 0 0 1 667.5914 409.6546)" class="st3 st7">a</text>
	<text transform="matrix(1 0 0 1 673.8615 409.6546)" class="st3 st7">g</text>
	<text transform="matrix(1 0 0 1 681.0515 409.6546)" class="st3 st7">me</text>
	<text transform="matrix(1 0 0 1 698.4014 409.6546)" class="st3 st7">n</text>
	<text transform="matrix(1 0 0 1 705.5615 409.6546)" class="st3 st7">t: </text>
	<text transform="matrix(1 0 0 1 715.3115 409.6546)" class="st3 st7">v</text>
	<text transform="matrix(1 0 0 1 721.5215 409.6546)" class="st3 st7">a</text>
	<text transform="matrix(1 0 0 1 727.7815 409.6546)" class="st3 st7">r</text>
	<text transform="matrix(1 0 0 1 731.9014 409.6546)" class="st3 st7">char(255)</text>
	<text transform="matrix(1 0 0 1 557.8615 425.2545)" class="st3 st7">A</text>
	<text transform="matrix(1 0 0 1 565.6614 425.2545)" class="st3 st7">dd</text>
	<text transform="matrix(1 0 0 1 580.3215 425.2545)" class="st3 st7">r</text>
	<text transform="matrix(1 0 0 1 584.4414 425.2545)" class="st3 st7">ess: </text>
	<text transform="matrix(1 0 0 1 606.7014 425.2545)" class="st3 st7">v</text>
	<text transform="matrix(1 0 0 1 612.9014 425.2545)" class="st3 st7">a</text>
	<text transform="matrix(1 0 0 1 619.1714 425.2545)" class="st3 st7">r</text>
	<text transform="matrix(1 0 0 1 623.2915 425.2545)" class="st3 st7">char(255)</text>
	<text transform="matrix(1 0 0 1 557.8615 440.8546)" class="st3 st7">V</text>
	<text transform="matrix(1 0 0 1 564.6914 440.8546)" class="st3 st7">alue: i</text>
	<text transform="matrix(1 0 0 1 596.1814 440.8546)" class="st3 st7">n</text>
	<text transform="matrix(1 0 0 1 603.3514 440.8546)" class="st3 st7">t</text>
	<text transform="matrix(1 0 0 1 557.8615 456.4546)" class="st3 st7">T</text>
	<text transform="matrix(1 0 0 1 563.4915 456.4546)" class="st3 st7">ag:  </text>
	<text transform="matrix(1 0 0 1 585.2214 456.4546)" class="st3 st7">v</text>
	<text transform="matrix(1 0 0 1 591.4314 456.4546)" class="st3 st7">a</text>
	<text transform="matrix(1 0 0 1 597.6914 456.4546)" class="st3 st7">r</text>
	<text transform="matrix(1 0 0 1 601.8115 456.4546)" class="st3 st7">char(255)</text>
	<text transform="matrix(1 0 0 1 557.8615 472.0545)" class="st3 st7">T</text>
	<text transform="matrix(1 0 0 1 564.1714 472.0545)" class="st3 st7">imestamp: D</text>
	<text transform="matrix(1 0 0 1 632.6215 472.0545)" class="st3 st7">a</text>
	<text transform="matrix(1 0 0 1 638.8414 472.0545)" class="st3 st7">t</text>
	<text transform="matrix(1 0 0 1 643.0615 472.0545)" class="st3 st7">e</text>
	<text transform="matrix(1 0 0 1 557.8615 487.6546)" class="st3 st7">C</text>
	<text transform="matrix(1 0 0 1 565.2415 487.6546)" class="st3 st7">u</text>
	<text transform="matrix(1 0 0 1 572.4114 487.6546)" class="st3 st7">r</text>
	<text transform="matrix(1 0 0 1 576.7114 487.6546)" class="st3 st7">r</text>
	<text transform="matrix(1 0 0 1 580.8314 487.6546)" class="st3 st7">e</text>
	<text transform="matrix(1 0 0 1 587.3414 487.6546)" class="st3 st7">n</text>
	<text transform="matrix(1 0 0 1 594.5115 487.6546)" class="st3 st7">t</text>
	<text transform="matrix(1 0 0 1 598.8115 487.6546)" class="st3 st7">I</text>
	<text transform="matrix(1 0 0 1 602.0515 487.6546)" class="st3 st7">nd</text>
	<text transform="matrix(1 0 0 1 616.5914 487.6546)" class="st3 st7">e</text>
	<text transform="matrix(1 0 0 1 623.0715 487.6546)" class="st3 st7">x: i</text>
	<text transform="matrix(1 0 0 1 637.5715 487.6546)" class="st3 st7">n</text>
	<text transform="matrix(1 0 0 1 644.7415 487.6546)" class="st3 st7">t</text>
	<text transform="matrix(1 0 0 1 557.8615 503.2545)" class="st3 st7">Last</text>
	<text transform="matrix(1 0 0 1 579.7114 503.2545)" class="st3 st7">I</text>
	<text transform="matrix(1 0 0 1 582.9514 503.2545)" class="st3 st7">nd</text>
	<text transform="matrix(1 0 0 1 597.5015 503.2545)" class="st3 st7">e</text>
	<text transform="matrix(1 0 0 1 603.9714 503.2545)" class="st3 st7">x: i</text>
	<text transform="matrix(1 0 0 1 618.4814 503.2545)" class="st3 st7">n</text>
	<text transform="matrix(1 0 0 1 625.6415 503.2545)" class="st3 st7">t</text>
	<text transform="matrix(1 0 0 1 557.8615 518.8546)" class="st3 st7">BundleHash: </text>
	<text transform="matrix(1 0 0 1 628.7515 518.8546)" class="st3 st7">v</text>
	<text transform="matrix(1 0 0 1 634.9514 518.8546)" class="st3 st7">a</text>
	<text transform="matrix(1 0 0 1 641.2114 518.8546)" class="st3 st7">r</text>
	<text transform="matrix(1 0 0 1 645.3414 518.8546)" class="st3 st7">char(255)</text>
	<text transform="matrix(1 0 0 1 557.8615 534.4545)" class="st3 st7">T</text>
	<text transform="matrix(1 0 0 1 563.7415 534.4545)" class="st3 st7">run</text>
	<text transform="matrix(1 0 0 1 582.3615 534.4545)" class="st3 st7">k</text>
	<text transform="matrix(1 0 0 1 588.2114 534.4545)" class="st3 st7">T</text>
	<text transform="matrix(1 0 0 1 594.0914 534.4545)" class="st3 st7">r</text>
	<text transform="matrix(1 0 0 1 598.2815 534.4545)" class="st3 st7">ansa</text>
	<text transform="matrix(1 0 0 1 623.1714 534.4545)" class="st3 st7">c</text>
	<text transform="matrix(1 0 0 1 629.1614 534.4545)" class="st3 st7">tion: </text>
	<text transform="matrix(1 0 0 1 656.3115 534.4545)" class="st3 st7">v</text>
	<text transform="matrix(1 0 0 1 662.5115 534.4545)" class="st3 st7">a</text>
	<text transform="matrix(1 0 0 1 668.7715 534.4545)" class="st3 st7">r</text>
	<text transform="matrix(1 0 0 1 672.9014 534.4545)" class="st3 st7">char(255)</text>
	<text transform="matrix(1 0 0 1 557.8615 550.0545)" class="st3 st7">B</text>
	<text transform="matrix(1 0 0 1 564.9114 550.0545)" class="st3 st7">r</text>
	<text transform="matrix(1 0 0 1 569.0914 550.0545)" class="st3 st7">anc</text>
	<text transform="matrix(1 0 0 1 588.4014 550.0545)" class="st3 st7">h</text>
	<text transform="matrix(1 0 0 1 594.9614 550.0545)" class="st3 st7">T</text>
	<text transform="matrix(1 0 0 1 600.8414 550.0545)" class="st3 st7">r</text>
	<text transform="matrix(1 0 0 1 605.0215 550.0545)" class="st3 st7">ansa</text>
	<text transform="matrix(1 0 0 1 629.9214 550.0545)" class="st3 st7">c</text>
	<text transform="matrix(1 0 0 1 635.9114 550.0545)" class="st3 st7">tion: </text>
	<text transform="matrix(1 0 0 1 663.0515 550.0545)" class="st3 st7">v</text>
	<text transform="matrix(1 0 0 1 669.2615 550.0545)" class="st3 st7">a</text>
	<text transform="matrix(1 0 0 1 675.5215 550.0545)" class="st3 st7">r</text>
	<text transform="matrix(1 0 0 1 679.6415 550.0545)" class="st3 st7">char(255)</text>
	<text transform="matrix(1 0 0 1 557.8615 565.6545)" class="st3 st7">Non</text>
	<text transform="matrix(1 0 0 1 580.7715 565.6545)" class="st3 st7">c</text>
	<text transform="matrix(1 0 0 1 586.5115 565.6545)" class="st3 st7">e: </text>
	<text transform="matrix(1 0 0 1 598.4714 565.6545)" class="st3 st7">v</text>
	<text transform="matrix(1 0 0 1 604.6714 565.6545)" class="st3 st7">a</text>
	<text transform="matrix(1 0 0 1 610.9414 565.6545)" class="st3 st7">r</text>
	<text transform="matrix(1 0 0 1 615.0615 565.6545)" class="st3 st7">char(255)</text>
	<text transform="matrix(1 0 0 1 557.8615 581.2545)" class="st3 st7">C</text>
	<text transform="matrix(1 0 0 1 565.2615 581.2545)" class="st3 st7">onfi</text>
	<text transform="matrix(1 0 0 1 586.4114 581.2545)" class="st3 st7">r</text>
	<text transform="matrix(1 0 0 1 590.7114 581.2545)" class="st3 st7">med: boolean</text>
	<text transform="matrix(1 0 0 1 557.8615 596.8546)" class="st3 st7">B</text>
	<text transform="matrix(1 0 0 1 564.9114 596.8546)" class="st3 st7">r</text>
	<text transform="matrix(1 0 0 1 569.0315 596.8546)" class="st3 st7">oadcas</text>
	<text transform="matrix(1 0 0 1 607.0015 596.8546)" class="st3 st7">t</text>
	<text transform="matrix(1 0 0 1 611.2214 596.8546)" class="st3 st7">ed: boolean</text>
	<line class="st11" x1="159.8" y1="235.8" x2="159.8" y2="237.8"/>
	<line class="st12" x1="159.8" y1="241.5" x2="159.8" y2="299.9"/>
	<polyline class="st11" points="159.8,301.8 159.8,303.8 157.8,303.8 	"/>
	<line class="st13" x1="153.6" y1="303.8" x2="114.4" y2="303.8"/>
	<polyline class="st11" points="112.3,303.8 110.3,303.8 110.3,305.8 	"/>
	<line class="st14" x1="110.3" y1="309.6" x2="110.3" y2="368.2"/>
	<line class="st11" x1="110.3" y1="370.1" x2="110.3" y2="372.1"/>
	<polyline class="st2" points="103.1,375.1 110.2,361.8 117.4,375.1 	"/>
	<circle class="st2" cx="110.2" cy="355" r="5.6"/>
	<line class="st11" x1="154.3" y1="240" x2="165.8" y2="240"/>
	<polyline class="st2" points="363.1,239.4 349.8,232.3 363.1,225.2 	"/>
	<circle class="st2" cx="343" cy="232.3" r="5.6"/>
	<polyline class="st2" points="460.4,263.4 453.2,276.7 446.1,263.4 	"/>
	<circle class="st2" cx="453.2" cy="283.5" r="5.6"/>
	<polyline class="st2" points="502.7,87.5 489.4,80.3 502.7,73.2 	"/>
	<circle class="st2" cx="482.6" cy="80.3" r="5.6"/>
	<polyline class="st2" points="591.8,116 584.7,129.3 577.6,116 	"/>
	<circle class="st2" cx="584.7" cy="136.1" r="5.6"/>
	<line class="st11" x1="247.4" y1="129.5" x2="247.4" y2="141.1"/>
	<line class="st11" x1="324.3" y1="368" x2="335.8" y2="368"/>
	<line class="st11" x1="661.3" y1="345" x2="672.8" y2="345"/>
	<polyline class="st15" points="240.9,135.3 267.6,135.3 316.1,232.3 363,232.3 	"/>
	<polyline class="st15" points="267.6,135.3 477,80.3 503.2,80.3 	"/>
	<polyline class="st15" points="585.5,116 584.7,235.8 665,234.8 666.6,352.5 	"/>
	<polyline class="st15" points="453.2,263.8 453.2,319.6 330,317.4 330,375.1 	"/>
	<text transform="matrix(0.9778 0 -0.2095 0.9778 515.2419 85.0641)" class="st3 st16">A</text>
	<text transform="matrix(0.9778 0 -0.2095 0.9778 523.0524 85.0641)" class="st3 st16">cc</text>
	<text transform="matrix(0.9778 0 -0.2095 0.9778 534.5573 85.0641)" class="st3 st16">ou</text>
	<text transform="matrix(0.9778 0 -0.2095 0.9778 548.8757 85.0641)" class="st3 st16">n</text>
	<text transform="matrix(0.9778 0 -0.2095 0.9778 556.0495 85.0641)" class="st3 st16">tID: i</text>
	<text transform="matrix(0.9778 0 -0.2095 0.9778 580.6374 85.0641)" class="st3 st16">n</text>
	<text transform="matrix(0.9778 0 -0.2095 0.9778 587.8112 85.0641)" class="st3 st16">t</text>
	<text transform="matrix(0.9778 0 -0.2095 0.9778 373.0318 232.4841)" class="st3 st16">A</text>
	<text transform="matrix(0.9778 0 -0.2095 0.9778 380.8423 232.4841)" class="st3 st16">cc</text>
	<text transform="matrix(0.9778 0 -0.2095 0.9778 392.3472 232.4841)" class="st3 st16">ou</text>
	<text transform="matrix(0.9778 0 -0.2095 0.9778 406.6656 232.4841)" class="st3 st16">n</text>
	<text transform="matrix(0.9778 0 -0.2095 0.9778 413.8384 232.4841)" class="st3 st16">tID: </text>
	<text transform="matrix(0.9778 0 -0.2095 0.9778 435.3795 232.4841)" class="st3 st16">v</text>
	<text transform="matrix(0.9778 0 -0.2095 0.9778 441.5923 232.4841)" class="st3 st16">a</text>
	<text transform="matrix(0.9778 0 -0.2095 0.9778 447.8648 232.4841)" class="st3 st16">r</text>
	<text transform="matrix(0.9778 0 -0.2095 0.9778 451.9908 232.4841)" class="st3 st16">char(255)</text>
	<text transform="matrix(0.9778 0 -0.2095 0.9778 373.0316 249.3741)" class="st3 st16">NodeID: </text>
	<text transform="matrix(0.9778 0 -0.2095 0.9778 419.8363 249.3741)" class="st3 st16">v</text>
	<text transform="matrix(0.9778 0 -0.2095 0.9778 426.0492 249.3741)" class="st3 st16">a</text>
	<text transform="matrix(0.9778 0 -0.2095 0.9778 432.3217 249.3741)" class="st3 st16">r</text>
	<text transform="matrix(0.9778 0 -0.2095 0.9778 436.4477 249.3741)" class="st3 st16">char(255)</text>
	<text transform="matrix(0.9778 0 -0.2095 0.9778 38.9814 433.3041)" class="st3 st16">A</text>
	<text transform="matrix(0.9778 0 -0.2095 0.9778 46.7919 433.3041)" class="st3 st16">cc</text>
	<text transform="matrix(0.9778 0 -0.2095 0.9778 58.2978 433.3041)" class="st3 st16">ou</text>
	<text transform="matrix(0.9778 0 -0.2095 0.9778 72.6152 433.3041)" class="st3 st16">n</text>
	<text transform="matrix(0.9778 0 -0.2095 0.9778 79.789 433.3041)" class="st3 st16">tID: </text>
	<text transform="matrix(0.9778 0 -0.2095 0.9778 101.329 433.3041)" class="st3 st16">v</text>
	<text transform="matrix(0.9778 0 -0.2095 0.9778 107.5429 433.3041)" class="st3 st16">a</text>
	<text transform="matrix(0.9778 0 -0.2095 0.9778 113.8144 433.3041)" class="st3 st16">r</text>
	<text transform="matrix(0.9778 0 -0.2095 0.9778 117.9404 433.3041)" class="st3 st16">char(255)</text>
	<text transform="matrix(0.9778 0 -0.2095 0.9778 515.2421 101.6242)" class="st3 st16">Hash: </text>
	<text transform="matrix(0.9778 0 -0.2095 0.9778 547.8369 101.6242)" class="st3 st16">v</text>
	<text transform="matrix(0.9778 0 -0.2095 0.9778 554.04 101.6242)" class="st3 st16">a</text>
	<text transform="matrix(0.9778 0 -0.2095 0.9778 560.3212 101.6242)" class="st3 st16">r</text>
	<text transform="matrix(0.9778 0 -0.2095 0.9778 564.4482 101.6242)" class="st3 st16">char(255)</text>
</g>
</svg>
